<svg
    style={
      background
        ? {
            background:
              'linear-gradient(0deg, var(--ck-brand-metamask-12), var(--ck-brand-metamask-11))',
            borderRadius: '27.5%',
          }
        : undefined
    }
    width="32"
    height="32"
    viewBox="0 0 32 32"
    fill="none"
    xmlns="http://www.w3.org/2000/svg"
  >
    <rect x="308.074" y="0.349609" width="327.683" height="327.683" rx="17.0225" fill="#1A1A1A"/>
    <path d="M444.063 116.065C444.063 113.066 444.063 111.566 444.358 110.222C445.062 107.01 446.984 104.196 449.719 102.372C450.864 101.609 452.261 101.063 455.054 99.9719L519.101 74.9537C520.767 74.3031 521.599 73.9778 522.273 73.9625C523.905 73.9256 525.38 74.9327 525.939 76.4667C526.17 77.0993 526.17 77.9934 526.17 79.7816V128.942C526.17 131.962 526.17 133.472 525.872 134.823C525.16 138.053 523.217 140.878 520.455 142.697C519.3 143.458 517.89 143.998 515.07 145.078L451.1 169.566C449.44 170.201 448.611 170.519 447.94 170.53C446.313 170.558 444.848 169.55 444.293 168.022C444.063 167.391 444.063 166.502 444.063 164.726V116.065Z" fill="black"/>
    <path d="M417.125 199.453C417.125 196.453 417.125 194.954 417.419 193.61C418.123 190.398 420.045 187.584 422.781 185.76C423.925 184.997 425.322 184.451 428.116 183.36L492.162 158.341C493.828 157.691 494.661 157.365 495.334 157.35C496.967 157.313 498.441 158.32 499.001 159.854C499.231 160.487 499.231 161.381 499.231 163.169L499.231 212.33C499.231 215.35 499.231 216.86 498.934 218.211C498.222 221.44 496.278 224.265 493.517 226.085C492.361 226.846 490.951 227.386 488.131 228.465L424.161 252.954C422.502 253.589 421.672 253.907 421.001 253.918C419.375 253.946 417.91 252.938 417.354 251.409C417.125 250.779 417.125 249.89 417.125 248.113V199.453Z" fill="black"/>
    <path d="M444.063 104.265L526.17 72.1919V140.828L444.063 172.259V104.265Z" fill="white"/>
    <path d="M417.125 187.652L499.231 155.58L499.231 224.215L417.125 255.647L417.125 187.652Z" fill="white"/>
    <path d="M37.7713 610.656H14.8931V480H64.7605C94.4306 480 111.768 495.014 111.768 520.752C111.768 538.268 103.546 550.78 88.1749 557.035L113.019 610.656H87.9962L65.8329 561.861H37.7713V610.656ZM37.7713 500.376V541.664H64.7605C79.2381 541.664 87.8174 533.979 87.8174 520.752C87.8174 507.704 79.2381 500.376 64.7605 500.376H37.7713ZM145.261 612.98C126.494 612.98 115.055 602.077 115.055 585.454C115.055 569.19 126.852 559.002 147.764 557.393L174.217 555.427V553.461C174.217 541.485 167.067 536.66 155.986 536.66C143.117 536.66 135.967 542.022 135.967 551.316H117.379C117.379 532.191 133.107 519.68 157.058 519.68C180.83 519.68 195.486 532.549 195.486 557.035V610.656H176.362L174.753 597.609C170.999 606.724 159.024 612.98 145.261 612.98ZM152.411 596.536C165.816 596.536 174.395 588.493 174.395 574.909V570.262L155.986 571.692C142.402 572.943 137.218 577.411 137.218 584.561C137.218 592.604 142.58 596.536 152.411 596.536ZM274.64 610.656H203.324V592.783L247.293 540.592H203.324V522.361H274.64V540.413L229.956 592.425H274.64V610.656ZM277.285 566.33C277.285 538.804 297.124 519.858 324.471 519.858C351.817 519.858 371.657 538.804 371.657 566.33C371.657 593.855 351.817 612.801 324.471 612.801C297.124 612.801 277.285 593.855 277.285 566.33ZM299.09 566.33C299.09 582.416 309.457 593.319 324.471 593.319C339.485 593.319 349.851 582.416 349.851 566.33C349.851 550.243 339.485 539.341 324.471 539.341C309.457 539.341 299.09 550.243 299.09 566.33ZM435.413 522.003V542.2H427.37C411.641 542.2 401.81 550.601 401.81 567.76V610.656H380.005V522.539H400.559L401.81 535.408C405.564 526.65 413.964 520.752 425.761 520.752C428.8 520.752 431.838 521.11 435.413 522.003ZM510.859 610.656L471.894 480H495.666L516.4 548.992C518.366 556.142 520.332 563.47 522.298 574.909C524.443 563.291 526.409 556.499 528.733 548.992L549.287 480H574.489L594.686 548.992C596.831 556.321 598.797 563.827 600.942 574.909C603.444 562.755 605.232 555.784 607.198 549.171L628.288 480H651.524L611.845 610.656H589.681L561.799 515.569L533.38 610.656H510.859ZM669.565 612.98C650.798 612.98 639.359 602.077 639.359 585.454C639.359 569.19 651.155 559.002 672.068 557.393L698.52 555.427V553.461C698.52 541.485 691.371 536.66 680.289 536.66C667.42 536.66 660.271 542.022 660.271 551.316H641.682C641.682 532.191 657.411 519.68 681.362 519.68C705.134 519.68 719.79 532.549 719.79 557.035V610.656H700.665L699.057 597.609C695.303 606.724 683.328 612.98 669.565 612.98ZM676.715 596.536C690.12 596.536 698.699 588.493 698.699 574.909V570.262L680.289 571.692C666.705 572.943 661.522 577.411 661.522 584.561C661.522 592.604 666.884 596.536 676.715 596.536ZM754.26 610.656H732.633V477.677H754.26V610.656ZM790.181 610.656H768.554V477.677H790.181V610.656ZM843.619 612.98C817.345 612.98 798.935 593.855 798.935 566.508C798.935 538.804 816.988 519.68 842.904 519.68C869.357 519.68 886.158 537.375 886.158 564.9V571.513L819.669 571.692C821.277 587.242 829.499 595.106 843.977 595.106C855.952 595.106 863.816 590.459 866.319 582.058H886.516C882.762 601.362 866.676 612.98 843.619 612.98ZM843.083 537.553C830.214 537.553 822.35 544.524 820.205 557.75H864.531C864.531 545.596 856.131 537.553 843.083 537.553ZM923.828 610.656H902.023V540.592H885.043V522.361H902.023V494.835H923.828V522.361H940.987V540.592H923.828V610.656Z" fill="black"/>
</svg>